<?xml version="1.0" encoding="UTF-8" standalone="no"?>
<!-- Created with Inkscape (http://www.inkscape.org/) -->

<svg
   width="206.83855mm"
   height="191.57843mm"
   viewBox="0 0 206.83855 191.57843"
   version="1.1"
   id="svg1"
   xml:space="preserve"
   inkscape:export-filename="mapa de bits.svg"
   inkscape:export-xdpi="96"
   inkscape:export-ydpi="96"
   xmlns:inkscape="http://www.inkscape.org/namespaces/inkscape"
   xmlns:sodipodi="http://sodipodi.sourceforge.net/DTD/sodipodi-0.dtd"
   xmlns="http://www.w3.org/2000/svg"
   xmlns:svg="http://www.w3.org/2000/svg"><sodipodi:namedview
     id="namedview1"
     pagecolor="#505050"
     bordercolor="#eeeeee"
     borderopacity="1"
     inkscape:showpageshadow="0"
     inkscape:pageopacity="0"
     inkscape:pagecheckerboard="0"
     inkscape:deskcolor="#505050"
     inkscape:document-units="mm"><inkscape:page
       x="0"
       y="0"
       width="206.83855"
       height="191.57843"
       id="page2"
       margin="12.28396 12.924 12.284 12.923014"
       bleed="0" /></sodipodi:namedview><defs
     id="defs1"><clipPath
       clipPathUnits="userSpaceOnUse"
       id="clipPath3"><path
         d="M 0,543.057 H 586.314 V 0 H 0 Z"
         transform="translate(-492.52901,-390.13931)"
         id="path3" /></clipPath><clipPath
       clipPathUnits="userSpaceOnUse"
       id="clipPath5"><path
         d="M 0,543.057 H 586.314 V 0 H 0 Z"
         transform="translate(-316.63211,-412.60141)"
         id="path5" /></clipPath><clipPath
       clipPathUnits="userSpaceOnUse"
       id="clipPath7"><path
         d="M 0,543.057 H 586.314 V 0 H 0 Z"
         transform="translate(-292.35301,-185.4186)"
         id="path7" /></clipPath><clipPath
       clipPathUnits="userSpaceOnUse"
       id="clipPath9"><path
         d="M 0,543.057 H 586.314 V 0 H 0 Z"
         transform="translate(-350.21581,-431.99851)"
         id="path9" /></clipPath><clipPath
       clipPathUnits="userSpaceOnUse"
       id="clipPath11"><path
         d="M 0,543.057 H 586.314 V 0 H 0 Z"
         transform="translate(-213.9424,-108.3126)"
         id="path11" /></clipPath><clipPath
       clipPathUnits="userSpaceOnUse"
       id="clipPath13"><path
         d="M 0,543.057 H 586.314 V 0 H 0 Z"
         transform="translate(-277.53801,-49.977504)"
         id="path13" /></clipPath><clipPath
       clipPathUnits="userSpaceOnUse"
       id="clipPath15"><path
         d="M 0,543.057 H 586.314 V 0 H 0 Z"
         transform="translate(-396.04361,-108.3126)"
         id="path15" /></clipPath><clipPath
       clipPathUnits="userSpaceOnUse"
       id="clipPath17"><path
         d="M 0,543.057 H 586.314 V 0 H 0 Z"
         transform="translate(-466.15091,-33.920498)"
         id="path17" /></clipPath><clipPath
       clipPathUnits="userSpaceOnUse"
       id="clipPath19"><path
         d="M 0,543.057 H 586.314 V 0 H 0 Z"
         transform="translate(-521.33261,-49.977504)"
         id="path19" /></clipPath><clipPath
       clipPathUnits="userSpaceOnUse"
       id="clipPath21"><path
         d="M 0,543.057 H 586.314 V 0 H 0 Z"
         transform="translate(-576.46192,-49.977504)"
         id="path21" /></clipPath><clipPath
       clipPathUnits="userSpaceOnUse"
       id="clipPath23"><path
         d="M 0,543.057 H 586.314 V 0 H 0 Z"
         transform="translate(-94.9978,-105.4228)"
         id="path23" /></clipPath><clipPath
       clipPathUnits="userSpaceOnUse"
       id="clipPath25"><path
         d="M 0,543.057 H 586.314 V 0 H 0 Z"
         transform="translate(-101.0478,-9.2130002)"
         id="path25" /></clipPath><clipPath
       clipPathUnits="userSpaceOnUse"
       id="clipPath27"><path
         d="M 0,543.057 H 586.314 V 0 H 0 Z"
         id="path27" /></clipPath></defs><g
     id="g1"
     inkscape:groupmode="layer"
     inkscape:label="1"
     transform="matrix(0.26458333,0,0,0.26458334,6.0150605e-6,0)"><g
       id="group-MC0"><path
         id="path2"
         d="m 0,0 h -5.395 c 0,0 -88.097,-0.175 -116.996,-2.627 -28.898,-2.452 -56.396,-4.904 -67.079,-6.656 -10.684,-1.751 -41.296,-4.745 -42.385,-14.887 -0.683,-6.361 6.096,-9.847 9.283,-11.384 17.585,-8.481 37.305,-17.339 70.232,-34.153 32.927,-16.814 65.678,-35.028 74.436,-40.458 8.757,-5.429 27.497,-16.989 31.876,-25.571 0.916,-1.796 1.692,-3.893 2.351,-6.18 29.206,30.199 46.78,69.024 46.78,111.385 C 3.103,-20.115 2.036,-9.914 0,0"
         style="fill:#ec1c27;fill-opacity:1;fill-rule:nonzero;stroke:none"
         transform="matrix(1.3333333,0,0,-1.3333333,656.70533,203.89027)"
         clip-path="url(#clipPath3)" /><path
         id="path4"
         d="m 0,0 c -0.569,-0.569 -2.321,-4.291 -2.321,-4.291 0,0 -0.5,-2.258 0,-2.758 0.657,-0.657 2.54,0.262 2.54,0.262 v 1.883 l 1.095,0.131 4.466,-2.276 5.429,0.744 -0.087,1.27 h 0.919 v 2.802 c 0,0 -1.511,1.16 -2.014,1.664 -0.504,0.503 -0.569,1.62 -0.569,1.62 v 5.254 c 0,0 -0.613,2.058 -1.314,4.422 -0.7,2.365 -2.233,6.087 -3.503,8.32 -1.269,2.233 -3.459,4.948 -3.809,5.867 -0.35,0.92 -0.088,1.927 0.175,2.977 0.263,1.051 0.219,3.284 -0.306,4.773 -0.526,1.489 -1.226,2.452 -1.226,5.342 0,2.89 0.963,4.598 1.62,6.218 0.656,1.62 2.933,6.261 3.721,8.1 0.789,1.839 0.526,3.766 0.526,3.766 0,0 -0.263,2.714 -0.263,3.502 0,0.789 0.307,1.051 0.307,1.051 0,0 0.919,0.92 1.663,1.27 0.745,0.35 1.84,0.569 1.84,0.569 0,0 2.32,1.445 3.502,2.627 1.183,1.183 1.095,2.54 1.095,3.416 0,0.875 -0.788,1.269 -1.095,1.576 -0.306,0.306 -0.459,0.46 -0.656,0.919 -0.197,0.46 -0.701,0.745 -0.701,0.745 v 0.569 h -0.613 l -0.722,0.525 -0.898,-0.306 1.226,-0.985 c 0,0 0.898,0 1.182,-0.285 0.285,-0.284 0.526,-0.525 0.526,-1.051 0,-0.525 -0.526,-1.051 -0.526,-1.051 H 7.663 L 6.655,69.313 5.605,68.437 3.372,66.992 c 0,0 -3.722,-2.846 -4.423,-2.408 -0.7,0.438 -0.35,1.62 -0.35,1.62 l -1.533,0.044 -0.613,-0.745 -1.445,-0.219 -0.569,-1.094 0.438,-1.62 h 3.897 c 1.489,0 4.072,-1.795 4.685,-2.408 0.613,-0.613 1.139,-1.796 1.139,-3.503 0,-1.708 -0.219,-2.496 -0.701,-4.116 -0.482,-1.62 -2.759,-5.517 -5.254,-10.115 -2.496,-4.597 -2.496,-7.312 -2.496,-10.202 0,-2.89 3.765,-8.056 3.765,-8.056 0,0 2.365,-2.365 2.934,-3.065 0.569,-0.701 0.263,-2.102 0.263,-2.102 0,0 -0.613,-3.24 -1.007,-4.773 C 1.708,12.698 0.701,6.655 0.701,6.655 L 0.55,6.029 C 0.477,5.722 0.483,5.401 0.568,5.098 L 0.832,4.16 H 2.146 L 1.883,0.963 C 1.883,0.963 0.569,0.569 0,0"
         style="fill:#ec1c27;fill-opacity:1;fill-rule:nonzero;stroke:none"
         transform="matrix(1.3333333,0,0,-1.3333333,422.17613,173.9408)"
         clip-path="url(#clipPath5)" /><path
         id="path6"
         d="m 0,0 c -1.195,1.167 -51.228,50.059 -74.589,78.092 -23.644,28.374 -43.961,55.696 -52.017,70.933 -8.057,15.238 -19.091,40.633 -4.729,50.792 14.361,10.158 49.74,16.989 83.368,18.74 29.843,1.554 46.789,1.867 50.225,1.918 0.365,0.005 0.654,0.303 0.654,0.669 v 0.6 c 0,0.148 0.049,0.292 0.139,0.409 l 4.327,5.599 h 0.876 l -0.438,-7.268 0.994,1.408 c 0.037,0.053 0.067,0.112 0.088,0.174 l 2.613,7.839 c 0.188,0.565 0.964,0.622 1.233,0.09 l 3.741,-7.41 h 0.613 l 2.382,4.763 c 0.046,0.093 0.07,0.195 0.07,0.299 v 2.469 c 0,0.541 2.114,3.537 2.611,4.234 0.069,0.097 0.109,0.205 0.119,0.323 0.086,1.029 0.51,6.199 0.51,7.616 v 3.85 c 0,0.116 -0.026,0.224 -0.083,0.324 -0.678,1.195 -5.236,9.491 -4.952,16.099 0.307,7.137 1.576,10.552 2.977,12.829 1.402,2.277 3.897,5.736 3.897,5.736 0,0 0.964,1.445 0.964,2.495 0,1.051 -0.132,2.234 -1.139,2.672 -0.781,0.339 -6.49,1.311 -9.011,1.73 -0.688,0.115 -1.191,0.71 -1.191,1.408 v 2.992 c 0,0.468 0.168,0.917 0.47,1.275 0.252,0.299 0.59,0.62 0.975,0.782 0.832,0.351 6.13,1.839 8.495,3.722 2.364,1.883 4.904,4.773 5.954,7.4 1.051,2.627 2.188,7.216 6.087,11.91 5.491,6.611 10.654,10.095 15.762,12.172 5.977,2.43 9.371,3.328 16.07,3.328 6.699,0 9.983,-1.358 13.749,-3.153 3.765,-1.795 6.48,-3.94 9.939,-9.239 3.459,-5.298 5.386,-11.121 6.349,-14.887 0.764,-2.987 1.694,-7.904 2.045,-9.808 0.076,-0.412 -0.24,-0.788 -0.659,-0.788 h -0.15 c -0.292,0 -0.549,0.186 -0.637,0.464 -0.469,1.486 -1.978,6.19 -3.183,9.038 -1.444,3.415 -3.94,8.363 -6.699,12.085 -1.015,1.369 -1.383,1.796 -1.444,1.788 -0.105,-0.012 0.779,-1.227 0.779,-1.227 0,0 2.023,-2.532 4.387,-7.348 2.364,-4.817 3.941,-9.108 4.335,-10.465 0.173,-0.597 0.296,-1.067 0.378,-1.406 0.088,-0.359 -0.128,-0.721 -0.487,-0.811 -0.331,-0.082 -0.669,0.094 -0.789,0.414 -0.445,1.196 -1.729,4.306 -4.663,9.361 -3.288,5.665 -6.436,10.744 -11.778,14.729 -5.342,3.984 -8.188,4.904 -13.793,4.773 -5.604,-0.132 -11.384,-3.722 -11.384,-3.722 0,0 -5.121,-3.298 -7.444,-6.437 -2.322,-3.137 -6.051,-10.495 -7.386,-13.181 -0.225,-0.453 0.113,-0.979 0.618,-0.963 1.461,0.047 4.007,0.1 5.411,-0.042 2.583,-0.263 4.247,-0.876 5.473,-1.445 0.98,-0.455 2.714,-1.469 3.372,-1.858 0.169,-0.1 0.281,-0.267 0.315,-0.46 l 0.087,-0.506 c 0.049,-0.283 -0.087,-0.563 -0.339,-0.702 -0.641,-0.352 -1.951,-1.007 -3.435,-1.378 -2.102,-0.526 -5.298,-0.351 -5.342,-1.051 -0.043,-0.701 3.81,-4.948 4.773,-8.188 0.873,-2.937 1.818,-15.8 1.987,-18.184 0.017,-0.239 0.16,-0.446 0.376,-0.55 1.769,-0.852 9.724,-4.648 11.123,-4.648 1.576,0 2.321,0.526 4.816,1.27 2.496,0.745 4.467,1.095 7.225,0.788 2.759,-0.306 4.247,-0.875 5.386,-1.226 1.138,-0.35 3.503,-1.138 4.685,-1.138 1.182,0 2.758,-0.175 4.466,1.401 1.708,1.576 7.312,6.13 11.034,7.487 3.722,1.358 6.217,1.664 9.589,0.789 2.999,-0.779 5.925,-4.19 6.243,-5.156 0.833,-2.527 0.106,-3.741 0.106,-3.741 0,0 -0.721,1.211 -1.143,1.632 l -0.74,0.741 c 0,0 1.123,-1.742 1.226,-2.847 0.179,-1.917 -0.35,-5.259 -0.35,-5.259 0,0 -0.701,0.487 -1.095,0.881 -0.301,0.301 -0.749,0.766 -0.749,1.355 0,0.538 -0.083,2.148 -0.083,2.148 0,0 -0.263,-0.296 -0.269,-0.73 -0.011,-0.814 0.257,-2.816 -0.149,-3.831 -0.52,-1.3 -2.139,-1.475 -2.139,-1.475 0,0 0.335,2.139 0.105,3.365 -0.113,0.602 -1.758,4.298 -3.809,6.349 -1.401,1.401 -2.277,1.401 -3.678,1.401 -1.401,0 -4.729,-1.182 -6.918,-2.759 -1.458,-1.049 -1.401,-1.97 -5.649,-3.678 -1.539,-0.619 -2.561,-0.973 -3.238,-1.173 -0.498,-0.147 -0.643,-0.779 -0.26,-1.129 0.677,-0.62 1.518,-1.476 2.01,-2.295 0.919,-1.533 1.401,-3.065 1.401,-5.123 v -9.852 c 0,0 0.131,-2.474 -0.033,-2.638 -0.164,-0.164 -1.002,-0.049 -1.166,0.476 -0.164,0.526 -1.552,3.169 -1.781,4.286 -0.23,1.116 -0.961,2.758 -0.83,4.335 0.073,0.871 0.106,1.963 0.12,2.766 0.013,0.713 -0.068,1.423 -0.243,2.115 l -0.861,3.398 c 0,0 -0.45,-3.041 -1.129,-4.744 -0.277,-0.697 -1.253,-2.665 -1.959,-3.371 -1.739,-1.74 -4.696,-3.744 -5.714,-4.762 -1.018,-1.018 -2.692,-2.956 -2.692,-3.547 v -4.969 c 0,-0.181 0.07,-0.352 0.2,-0.478 0.635,-0.615 2.558,-2.51 2.558,-2.894 0,-0.46 -0.131,-0.854 -0.131,-0.854 l -0.839,-0.167 c -0.415,-0.083 -0.65,-0.526 -0.485,-0.916 l 0.035,-0.083 c 0.104,-0.248 0.347,-0.41 0.617,-0.41 h 1.578 c 0.37,0 0.67,-0.3 0.67,-0.669 v -8.962 c 0,-0.399 0.345,-0.709 0.741,-0.666 l 1.314,0.142 c 0.233,0.025 0.436,0.17 0.535,0.383 l 0.732,1.57 c 0.018,0.038 0.033,0.079 0.043,0.12 l 0.762,3.046 c 0.007,0.03 0.012,0.06 0.016,0.09 l 0.258,2.379 c 0.037,0.339 0.324,0.597 0.666,0.597 h 0.28 c 0.354,0 0.646,-0.276 0.668,-0.629 l 0.22,-3.63 c 0.003,-0.051 0.012,-0.101 0.026,-0.149 l 0.282,-0.953 c 0.177,-0.602 1.011,-0.65 1.257,-0.073 0.251,0.589 0.511,1.135 0.672,1.296 0.395,0.394 1.708,2.89 1.708,2.89 v 0.788 l -0.859,0.286 c -0.203,0.068 -0.361,0.229 -0.426,0.433 l -0.702,2.212 c -0.032,0.102 -0.088,0.195 -0.164,0.271 l -2.217,2.216 c -1.05,1.051 -2.528,2.792 -3.579,2.792 -1.051,0 -3.021,-0.132 -3.448,0.295 -0.321,0.321 -0.364,1.405 -0.365,1.922 0,0.178 0.07,0.345 0.196,0.471 l 2.632,2.632 c 1.116,1.116 3.021,2.824 3.547,4.006 0.525,1.182 0.788,2.299 1.182,3.678 0.394,1.379 0.886,1.872 1.083,2.069 0.161,0.161 0.585,-0.687 0.645,-1.03 0.049,-0.28 -0.025,-1.051 -0.025,-1.135 l 0.07,-2.946 c 0,-0.072 -0.329,-1.123 -0.353,-1.192 -0.152,-0.451 -0.314,-1.3 -0.435,-1.743 -0.23,-0.842 0,-2.884 0,-2.884 0,-0.133 0.037,-0.259 0.111,-0.369 0.35,-0.52 1.476,-2.143 2.647,-3.314 1.412,-1.413 4.007,-3.284 4.401,-3.284 0.298,0 1.496,-0.338 2.063,-0.503 0.193,-0.056 0.346,-0.194 0.425,-0.379 l 1.927,-4.516 c 0.034,-0.079 0.082,-0.15 0.143,-0.211 l 0.598,-0.598 0.206,1.563 c 0.091,0.692 1.048,0.8 1.291,0.145 l 0.742,-1.997 c 0.018,-0.048 0.029,-0.092 0.036,-0.143 0.052,-0.416 0.319,-2.549 0.319,-3.082 0,-0.457 0.353,-2.796 0.513,-3.836 0.047,-0.299 0.287,-0.526 0.588,-0.555 0.604,-0.059 1.526,-0.12 1.526,0.056 0,0.219 -0.136,2.573 -0.182,3.359 -0.01,0.164 -0.079,0.318 -0.195,0.434 l -1.092,1.092 c -0.367,0.366 -0.196,0.993 0.306,1.122 l 0.739,0.189 c 0.257,0.067 0.451,0.279 0.494,0.542 l 0.258,1.604 2.541,-5.626 c 0.129,-0.286 0.436,-0.445 0.743,-0.381 0.589,0.122 1.491,0.339 1.708,0.555 0.263,0.263 0.568,1.03 0.679,1.327 0.03,0.079 0.043,0.156 0.04,0.24 -0.023,0.771 -0.158,4.955 -0.456,5.789 -0.308,0.861 -0.73,3.905 -0.783,4.294 -0.004,0.03 -0.005,0.056 -0.005,0.086 v 1.006 l 1.085,-1.568 c 0.063,-0.092 0.103,-0.198 0.115,-0.309 l 0.224,-2.067 c 0.013,-0.127 0.063,-0.247 0.142,-0.346 l 0.305,-0.381 c 0.065,-0.081 0.11,-0.177 0.132,-0.278 l 0.55,-2.568 c 0.005,-0.024 0.012,-0.048 0.02,-0.071 l 0.479,-1.438 c 0.023,-0.069 0.035,-0.14 0.035,-0.212 v -1.402 l 1.097,1.048 c 0.208,0.198 0.519,0.242 0.773,0.108 l 0.758,-0.397 c 0.127,-0.066 0.229,-0.172 0.292,-0.3 l 1.02,-2.101 0.317,2.345 c 0.008,0.057 0.023,0.112 0.044,0.165 l 2.832,6.896 c 0.275,0.67 1.588,7.317 1.288,-0.238 l 0.181,-7.134 c 0.001,-0.042 -0.002,-0.085 -0.009,-0.127 l -0.572,-3.429 c -0.006,-0.036 -0.009,-0.073 -0.009,-0.11 v -2.647 c 0,-0.36 0.281,-0.656 0.642,-0.669 3.097,-0.107 16.733,-0.618 25.827,-1.357 34.03,-2.765 47.587,-5.79 52.839,-7.493 -18.024,80.338 -100.162,141.017 -198.783,141.017 -111.824,0 -202.475,-78.008 -202.475,-174.236 0,-96.007 90.237,-173.87 201.707,-174.228 C 0.024,-0.025 0.013,-0.013 0,0"
         style="fill:#ec1c27;fill-opacity:1;fill-rule:nonzero;stroke:none"
         transform="matrix(1.3333333,0,0,-1.3333333,389.804,476.8512)"
         clip-path="url(#clipPath7)" /><path
         id="path8"
         d="m 0,0 c -2.627,-0.438 -6.874,-0.788 -10.771,0.175 -3.206,0.793 -8.538,4.992 -8.538,4.992 l -0.548,-2.606 -0.46,-0.459 -0.3,-0.964 0.87,-0.262 c 0,0 0.832,-0.876 1.094,-1.62 0.263,-0.745 -0.262,-2.058 -1.138,-4.335 -0.876,-2.277 -0.92,-5.43 -0.743,-7.575 0.177,-2.146 1.181,-5.035 1.181,-5.035 h 2.255 v -1.818 c 0,0 -0.416,-0.416 -0.767,-1.379 -0.35,-0.963 0,-2.846 0,-2.846 h 0.588 c 0,0 -0.302,1.263 0.389,2.515 0.691,1.253 1.036,2.159 1.468,2.591 0.432,0.432 0.432,1.598 0.432,1.598 0,0 1.511,1.986 1.749,1.749 0.237,-0.238 0.237,-1.101 0.237,-1.101 l 0.475,-1.512 0.605,-2.029 0.82,-2.677 0.95,-4.085 0.207,0.207 c 0,0 0.398,2.366 0.398,3.23 0,0.863 -0.562,4.577 -0.562,4.577 l -0.043,0.777 h 1.598 l 0.216,-1.641 0.518,-0.518 0.345,-1.77 0.346,2.116 0.086,1.209 1.425,0.086 0.216,-3.627 0.173,-1.771 c 0,0 0.043,-0.345 0.172,-0.475 0.13,-0.129 0.681,-1.468 0.681,-1.468 v -0.932 h 2.385 c 0,0 -0.388,2.228 -0.388,2.444 0,0.216 -0.259,1.381 -0.259,1.381 l 0.518,0.864 0.691,1.166 0.95,-1.641 0.518,-0.907 0.129,-0.907 0.605,-0.604 0.129,-1.123 0.173,-0.673 2.03,0.371 c 0,0 0.734,0.216 0.906,0.907 0.173,0.691 0.303,1.382 0.303,1.382 l -0.242,0.773 -0.219,2.189 -0.35,1.489 -0.263,1.445 0.394,4.072 0.46,-2.299 0.766,-0.766 c 0,0 0.46,-2.868 0.219,-3.109 -0.241,-0.241 0.394,-0.394 0.394,-0.394 l 0.745,-3.109 c 0,0 0.328,0.854 0.722,1.248 0.394,0.394 0.766,0.766 0.766,0.766 h 0.482 l 0.438,-1.313 1.226,-2.584 0.438,2.146 c 0,0 0.262,1.051 0.744,2.058 0.482,1.007 0.832,2.277 0.832,2.277 l -0.394,1.182 c 0,0 -1.971,2.758 -3.284,5.911 -1.314,3.152 -1.62,5.823 -1.62,8.232 0,2.408 0.525,5.341 0.525,5.341 C 7.093,1.532 2.627,0.438 0,0"
         style="fill:#ec1c27;fill-opacity:1;fill-rule:nonzero;stroke:none"
         transform="matrix(1.3333333,0,0,-1.3333333,466.9544,148.078)"
         clip-path="url(#clipPath9)" /><path
         id="path10"
         d="m 0,0 v -43.456 c 0,-6.424 -0.641,-11.241 -1.178,-14.453 -0.534,-3.101 -2.353,-6.206 -4.817,-9.203 -2.356,-2.997 -5.779,-5.461 -10.169,-7.28 -4.387,-1.819 -9.419,-2.675 -15.091,-2.675 -6.851,0 -12.523,1.178 -17.235,3.424 -4.602,2.356 -7.918,5.353 -9.845,8.991 -2.034,3.642 -2.785,8.566 -2.785,14.665 L -61.136,0 h 11.641 c 0,0 -0.278,-56.623 0.471,-60.154 0.856,-3.534 2.568,-6.532 6.102,-9.099 3.531,-2.676 8.348,-3.961 14.235,-3.961 4.604,0 8.884,0.856 12.737,2.675 3.746,1.715 6.744,3.853 8.563,6.424 1.822,2.675 3.212,5.351 3.641,8.133 0.427,2.678 1.071,7.065 1.071,12.952 V 0 Z"
         style="fill:#283640;fill-opacity:1;fill-rule:nonzero;stroke:none"
         transform="matrix(1.3333333,0,0,-1.3333333,285.25653,579.6592)"
         clip-path="url(#clipPath11)" /><path
         id="path12"
         d="m 0,0 c -0.641,-6.317 -3.319,-11.133 -7.921,-14.664 -4.602,-3.427 -10.382,-4.817 -17.447,-4.068 -7.065,0.748 -16.376,6.421 -20.551,13.271 l 2.033,2.249 c 5.78,-8.24 10.17,-11.452 17.877,-12.738 5.135,-0.748 9.311,0.43 12.523,3.105 3.104,2.568 4.924,5.78 5.246,9.418 0.426,3.642 -0.43,6.851 -2.678,9.636 -2.246,2.675 -6.529,5.78 -12.845,9.311 -5.566,3.212 -9.741,5.887 -12.631,8.136 -2.782,2.246 -4.816,4.924 -6.206,8.133 -1.286,3.212 -1.822,6.531 -1.393,9.955 0.534,5.246 2.783,9.421 6.851,12.523 3.96,3.105 8.777,4.283 14.342,3.749 3.104,-0.322 5.887,-1.178 8.565,-2.463 2.675,-1.286 5.243,-3.746 7.814,-7.173 l -2.356,-1.927 c -0.641,0.964 -1.393,1.927 -2.141,2.786 -3.105,3.638 -6.958,5.672 -11.56,6.099 -4.387,0.537 -7.707,-0.319 -9.955,-2.461 -2.353,-2.141 -3.639,-4.602 -3.961,-7.494 -0.319,-3.317 0.644,-6.314 2.998,-8.989 2.248,-2.678 6.531,-5.78 12.845,-9.529 5.994,-3.424 10.277,-6.206 12.952,-8.24 2.782,-2.034 4.816,-4.602 6.209,-7.814 C 0,7.492 0.429,3.961 0,0"
         style="fill:#283640;fill-opacity:1;fill-rule:nonzero;stroke:none"
         transform="matrix(1.3333333,0,0,-1.3333333,370.05067,657.43933)"
         clip-path="url(#clipPath13)" /><path
         id="path14"
         d="M 0,0 V -77.067 H -2.034 L -56.086,-6.102 V -75.141 H -58.55 V 0 h 11.56 L -3.209,-58.55 V 0 Z"
         style="fill:#283640;fill-opacity:1;fill-rule:nonzero;stroke:none"
         transform="matrix(1.3333333,0,0,-1.3333333,528.05813,579.6592)"
         clip-path="url(#clipPath15)" /><path
         id="path16"
         d="M 0,0 V -2.675 H -44.744 V 74.392 H 0.212 V 71.824 H -33.719 V 39.176 h 7.814 14.45 v -2.675 h -14.128 -8.136 V 0 Z"
         style="fill:#283640;fill-opacity:1;fill-rule:nonzero;stroke:none"
         transform="matrix(1.3333333,0,0,-1.3333333,621.53453,678.84867)"
         clip-path="url(#clipPath17)" /><path
         id="path18"
         d="m 0,0 c -0.641,-6.317 -3.319,-11.133 -7.921,-14.664 -4.602,-3.427 -10.382,-4.817 -17.447,-4.068 -7.065,0.748 -16.376,6.421 -20.551,13.271 l 2.033,2.249 c 5.78,-8.24 10.17,-11.452 17.877,-12.738 5.135,-0.748 9.311,0.43 12.523,3.105 3.104,2.568 4.924,5.78 5.246,9.418 0.426,3.642 -0.43,6.851 -2.678,9.636 -2.246,2.675 -6.529,5.78 -12.845,9.311 -5.566,3.212 -9.741,5.887 -12.631,8.136 -2.782,2.246 -4.816,4.924 -6.206,8.133 -1.286,3.212 -1.822,6.531 -1.393,9.955 0.534,5.246 2.783,9.421 6.851,12.523 3.96,3.105 8.777,4.283 14.342,3.749 3.104,-0.322 5.887,-1.178 8.565,-2.463 2.675,-1.286 5.243,-3.746 7.814,-7.173 l -2.356,-1.927 c -0.641,0.964 -1.393,1.927 -2.141,2.786 -3.105,3.638 -6.958,5.672 -11.56,6.099 -4.387,0.537 -7.707,-0.319 -9.955,-2.461 -2.353,-2.141 -3.639,-4.602 -3.961,-7.494 -0.319,-3.317 0.644,-6.314 2.998,-8.989 2.248,-2.678 6.531,-5.78 12.845,-9.529 5.994,-3.424 10.277,-6.206 12.952,-8.24 2.782,-2.034 4.816,-4.602 6.209,-7.814 C 0,7.492 0.429,3.961 0,0"
         style="fill:#283640;fill-opacity:1;fill-rule:nonzero;stroke:none"
         transform="matrix(1.3333333,0,0,-1.3333333,695.11013,657.43933)"
         clip-path="url(#clipPath19)" /><path
         id="path20"
         d="m 0,0 c -0.641,-6.317 -3.319,-11.133 -7.921,-14.664 -4.602,-3.427 -10.382,-4.817 -17.447,-4.068 -7.065,0.748 -16.376,6.421 -20.551,13.271 l 2.034,2.249 c 5.779,-8.24 10.169,-11.452 17.876,-12.738 5.136,-0.748 9.311,0.43 12.523,3.105 3.104,2.568 4.924,5.78 5.246,9.418 0.426,3.642 -0.43,6.851 -2.678,9.636 -2.246,2.675 -6.529,5.78 -12.845,9.311 -5.566,3.212 -9.741,5.887 -12.631,8.136 -2.782,2.246 -4.816,4.924 -6.206,8.133 -1.285,3.212 -1.822,6.531 -1.393,9.955 0.534,5.246 2.783,9.421 6.851,12.523 3.96,3.105 8.777,4.283 14.342,3.749 3.105,-0.322 5.887,-1.178 8.565,-2.463 2.675,-1.286 5.243,-3.746 7.814,-7.173 l -2.356,-1.927 c -0.641,0.964 -1.393,1.927 -2.141,2.786 -3.105,3.638 -6.958,5.672 -11.56,6.099 -4.387,0.537 -7.707,-0.319 -9.955,-2.461 -2.353,-2.141 -3.639,-4.602 -3.961,-7.494 -0.319,-3.317 0.644,-6.314 2.998,-8.989 2.248,-2.678 6.531,-5.78 12.845,-9.529 5.994,-3.424 10.277,-6.206 12.952,-8.24 2.782,-2.034 4.816,-4.602 6.209,-7.814 C 0,7.492 0.429,3.961 0,0"
         style="fill:#283640;fill-opacity:1;fill-rule:nonzero;stroke:none"
         transform="matrix(1.3333333,0,0,-1.3333333,768.61587,657.43933)"
         clip-path="url(#clipPath21)" /><path
         id="path22"
         d="m 0,0 c 1.283,0.107 3.531,0.107 5.031,0.107 5.673,0 9.526,-0.534 11.879,-1.819 2.249,-1.178 4.068,-2.782 5.246,-5.031 1.178,-2.141 1.712,-5.246 1.712,-9.207 0,-5.779 -1.39,-9.845 -4.387,-12.415 -2.997,-2.568 -8.458,-3.853 -16.591,-3.853 H 0 Z m 0,-58.947 v 24.053 c 1.283,0 3.424,0.108 4.817,0.108 8.562,0 14.449,-1.5 17.873,-4.498 3.319,-2.997 5.031,-7.599 5.031,-13.913 0,-6.209 -1.497,-10.811 -4.494,-13.915 -2.647,-2.646 -6.463,-3.621 -11.445,-3.814 l 2.969,-3.018 c 3.812,0.224 7.132,0.614 9.868,1.264 4.495,1.071 8.133,3.212 11.023,6.638 2.783,3.532 4.283,7.707 4.283,12.523 0,5.458 -2.141,10.063 -6.317,13.809 -4.279,3.638 -10.703,5.78 -19.373,6.421 7.172,1.071 12.63,3.104 16.164,6.102 3.639,2.997 5.458,7.065 5.458,11.989 0,12.093 -10.489,18.088 -31.363,18.088 h -15.52 v -50.629 z"
         style="fill:#283640;fill-opacity:1;fill-rule:nonzero;stroke:none"
         transform="matrix(1.3333333,0,0,-1.3333333,126.66373,583.51227)"
         clip-path="url(#clipPath23)" /><path
         id="path24"
         d="M 0,0 -66.736,67.845 -33.447,99.1 H -37.71 L -80.222,59.712 V 99.1 H -91.356 V 22.032 h 11.134 v 33.931 l 5.243,4.816 L -15.37,0 Z"
         style="fill:#283640;fill-opacity:1;fill-rule:nonzero;stroke:none"
         transform="matrix(1.3333333,0,0,-1.3333333,134.7304,711.792)"
         clip-path="url(#clipPath25)" /><path
         id="path26"
         d="m 312.131,31.237 h -11.135 v 77.071 h 11.135 z"
         style="fill:#283640;fill-opacity:1;fill-rule:nonzero;stroke:none"
         transform="matrix(1.3333333,0,0,-1.3333333,0,724.076)"
         clip-path="url(#clipPath27)" /></g></g></svg>
